<svg width="80mm" height="22mm" viewBox="0 0 80 22" xmlns="http://www.w3.org/2000/svg"><defs><path id="a" d="M9.332 10.665h727.905v351.954H9.332z"/></defs><rect width="100%" height="100%" style="fill:#2d2533"/><g aria-label="AKAT" transform="translate(-.887 -6.757) scale(.26458)" style="font-size:40px;line-height:1.25;white-space:pre;shape-inside:url(#a);fill:#fff"><path d="m60.692 100.135-2.784-9.312H34.772l-2.784 9.312H10.292l24.096-66.048H59.06l24.096 66.048zM39.188 76.039h14.304l-6.912-23.52h-.384zM135.86 34.087h26.304l-23.712 27.168 24.192 38.88h-25.056L123.86 75.943l-11.52 9.408v14.784H91.124V34.087h21.216V62.31zM215.348 100.135l-2.784-9.312h-23.136l-2.784 9.312h-21.696l24.096-66.048h24.672l24.096 66.048zm-21.504-24.096h14.304l-6.912-23.52h-.384zM277.172 50.983v49.152h-21.216V50.983H234.26V34.087h64.512v16.896z" style="font-size:96px;font-family:'Archivo Black'"/></g></svg>