<svg width="220mm" height="330mm" viewBox="0 0 220 330" xmlns="http://www.w3.org/2000/svg"><rect width="100%" height="100%" style="fill:#2b2b2b"/><path fill="#dbdbdb" d="M163.649 113.684H56.35a6.998 6.998 0 0 0-6.997 6.998v88.636a6.998 6.998 0 0 0 6.997 6.998H163.65a6.998 6.998 0 0 0 6.997-6.998v-88.636a6.998 6.998 0 0 0-6.997-6.998zm-6.998 62.979-22.366-24.4a4.636 4.636 0 0 0-6.737-.14L102.6 177.069l25.258 25.257h-13.194l-22.36-22.36a4.666 4.666 0 0 0-6.597 0l-22.359 22.36v-74.642h93.302zm-83.505-27.99a11.196 11.196 0 1 1 11.196 11.195 11.196 11.196 0 0 1-11.196-11.196z" style="stroke-width:4.6651"/></svg>